<?xml version="1.0" encoding="utf-8"?>
<!-- Generator: Adobe Illustrator 27.6.1, SVG Export Plug-In . SVG Version: 6.00 Build 0)  -->
<svg version="1.1" xmlns="http://www.w3.org/2000/svg" xmlns:xlink="http://www.w3.org/1999/xlink" x="0px" y="0px"
	 viewBox="0 0 1031.3 98.4" style="enable-background:new 0 0 1031.3 98.4;" xml:space="preserve">
<style type="text/css">
	.st0{fill:#FFFFFF;}
	.st1{clip-path:url(#SVGID_00000079463373681627922080000007528303626797103039_);}
	.st2{clip-path:url(#SVGID_00000121980499788016402360000013250311315722028472_);}
	.st3{clip-path:url(#SVGID_00000016771653088754992050000006131420426774480804_);}
	.st4{clip-path:url(#SVGID_00000000933344386276852940000016641564867248432281_);}
	.st5{display:none;}
	.st6{display:inline;fill:none;stroke:#E52421;stroke-width:0.25;stroke-miterlimit:10;}
</style>
<g id="Ebene_1">
	<g>
		<path d="M42.4,20C37,20.2,32,23.3,32,27.3c0,4.4,4.1,7.2,16.1,9.7l13,2.9c16.6,3.4,25.1,12.8,25.1,26.3c0,20-18.9,30.3-40.1,30.3
			C21.3,96.4,2.5,82.2,0,69.7l25.1-8.5c2,9.7,13.9,15,22.6,15c6.8,0,12.4-3,12.4-8c0-3.8-2.5-5.9-10.4-7.4l-14.7-3
			C24,55.3,6,48,6,28.4C6,7.4,27.7,0,42.4,0L42.4,20z"/>
		<path d="M171.3,39.8c0,16.6-11.9,37.1-32.3,37.2l-48.8,0V1.8h47.3C152.8,1.8,171.1,16.6,171.3,39.8z M130.8,56.4
			c5.5,0,13.3-4.7,13.3-15.4c0-11.1-6.6-17-12.8-17H117v32.4H130.8z"/>
		<path d="M193.5,1.8h31.2l34.9,92.7h-29.4l-5.3-17.3h-61.2L193.5,1.8z M218.6,57.3L210.9,32l-1.6-6.1l-1.6,6.1l-8.5,25.2H218.6z"/>
		<path d="M419.3,37.4v20.2h-42.1v14.6h46.3v22.4h-74.3V37.4L419.3,37.4z"/>
		<path d="M424,1.8h27.9v36l60.9,0v56.7h-27.9V61.1L424,61V1.8z"/>
		<path d="M620.9,1.8h27.9v68.4h43.4v24.3h-71.3V1.8z"/>
		<path d="M734.3,1.8c27.7,0,47.4,20.6,47.4,46.3c0,25.9-19.9,46.3-47.6,46.3h-38V50.9l27.9,0v20.5h10.2c10.1,0,19.1-10.8,19.1-23
			c0-12.4-9-23.3-19.1-23.3L734.3,1.8z"/>
		<path d="M785.5,2.3h74.3v21.4h-46.3v17.2h42.1V61L785.5,61V2.3z"/>
		<path d="M909.8,1.8c22.2,0,33,15,33.1,30.5c0,12.8-8.3,21.9-19.5,26.2l23.2,36h-32L895.4,61l-31.1,0V1.8H909.8z M906,42.9
			c6.8,0,9.8-5.9,9.8-10.2c0-4.8-2.5-10.5-10.1-10.5h-14.5v20.7H906z"/>
		<path d="M566.9,0.1c-24.7,0-44.5,15.3-49.1,37.8h29.1c3.2-8.4,10.4-14.4,20.2-14.4c13.4,0,21.8,11.2,21.8,24.8
			c0,12.7-8.5,24.7-21.9,24.7c-0.1,0-0.3,0-0.4,0v23.4c0.1,0,0.3,0,0.4,0c28.4,0,50.2-20.4,50.2-48.3
			C617.1,20.2,595.3,0.1,566.9,0.1z"/>
		<g>
			<path d="M319.4,39.5l25.9-7.6C342.5,16.1,325.6,0,300.3,0v23.4C312.3,23.4,318.9,32.3,319.4,39.5z"/>
			<path d="M319.2,57c-1.4,6.8-7.4,15.9-18.9,15.9c-9.8,0-16.8-6.4-20-14.6h-29.1c4.6,22.6,24.3,38.1,49.1,38.1
				c25.8,0,41.7-16.6,45-32.7L319.2,57z"/>
		</g>
		<g>
			<path d="M959.5,1.9h30.1v9h-17.8v4.2h16.5v8.2h-16.5v4.5h17.8v9.5h-30.1V1.9z"/>
			<path d="M1005.1,1.9l5.4,20.8l0.6,3.1l0.6-3.1l5.4-20.8h12.7l-11.4,35.4h-14.5L992.4,1.9H1005.1z"/>
		</g>
	</g>
</g>
<g id="GRID" class="st5">
</g>
</svg>
